<mxfile host="www.draw.io" modified="2019-12-27T03:52:06.720Z" agent="Mozilla/5.0 (Windows NT 6.2; Win64; x64) AppleWebKit/537.36 (KHTML, like Gecko) Chrome/79.0.3945.88 Safari/537.36" etag="fs-mgiPfLREVh37MOX8X" version="12.4.3" type="github" pages="1">
  <diagram name="Page-1" id="13e1069c-82ec-6db2-03f1-153e76fe0fe0">
    <mxGraphModel dx="1873" dy="427" grid="1" gridSize="10" guides="1" tooltips="1" connect="1" arrows="1" fold="1" page="1" pageScale="1" pageWidth="1100" pageHeight="850" background="#ffffff" math="0" shadow="0">
      <root>
        <mxCell id="0"/>
        <mxCell id="1" parent="0"/>
        <mxCell id="7baba1c4bc27f4b0-2" value=":xp-sales-im&lt;br&gt;(销售IM)" style="shape=umlLifeline;perimeter=lifelinePerimeter;whiteSpace=wrap;html=1;container=1;collapsible=0;recursiveResize=0;outlineConnect=0;rounded=1;shadow=0;comic=0;labelBackgroundColor=none;strokeWidth=1;fontFamily=Verdana;fontSize=12;align=center;fillColor=#ffe6cc;strokeColor=#d79b00;" parent="1" vertex="1">
          <mxGeometry x="240" y="80" width="100" height="510" as="geometry"/>
        </mxCell>
        <mxCell id="SCf--bu4-dqeZi4qSqdn-6" value="" style="html=1;points=[];perimeter=orthogonalPerimeter;rounded=0;shadow=0;comic=0;labelBackgroundColor=none;strokeWidth=1;fontFamily=Verdana;fontSize=12;align=center;fillColor=#dae8fc;strokeColor=#6c8ebf;" parent="7baba1c4bc27f4b0-2" vertex="1">
          <mxGeometry x="45" y="60" width="10" height="380" as="geometry"/>
        </mxCell>
        <mxCell id="7baba1c4bc27f4b0-8" value=":销售" style="shape=umlLifeline;perimeter=lifelinePerimeter;whiteSpace=wrap;html=1;container=1;collapsible=0;recursiveResize=0;outlineConnect=0;rounded=1;shadow=0;comic=0;labelBackgroundColor=none;strokeWidth=1;fontFamily=Verdana;fontSize=12;align=center;fillColor=#ffe6cc;strokeColor=#d79b00;" parent="1" vertex="1">
          <mxGeometry x="100" y="80" width="100" height="500" as="geometry"/>
        </mxCell>
        <mxCell id="7baba1c4bc27f4b0-9" value="" style="html=1;points=[];perimeter=orthogonalPerimeter;rounded=0;shadow=0;comic=0;labelBackgroundColor=none;strokeWidth=1;fontFamily=Verdana;fontSize=12;align=center;fillColor=#dae8fc;strokeColor=#6c8ebf;" parent="7baba1c4bc27f4b0-8" vertex="1">
          <mxGeometry x="45" y="90" width="10" height="350" as="geometry"/>
        </mxCell>
        <mxCell id="7baba1c4bc27f4b0-19" value="" style="html=1;points=[];perimeter=orthogonalPerimeter;rounded=0;shadow=0;comic=0;labelBackgroundColor=none;strokeWidth=1;fontFamily=Verdana;fontSize=12;align=center;fillColor=#dae8fc;strokeColor=#6c8ebf;" parent="1" vertex="1">
          <mxGeometry x="725" y="260" width="10" height="60" as="geometry"/>
        </mxCell>
        <mxCell id="ZvRYTC18ovLtI7Ebb16t-30" value=":客户" style="shape=umlLifeline;perimeter=lifelinePerimeter;whiteSpace=wrap;html=1;container=1;collapsible=0;recursiveResize=0;outlineConnect=0;rounded=1;shadow=0;comic=0;labelBackgroundColor=none;strokeWidth=1;fontFamily=Verdana;fontSize=12;align=center;fillColor=#ffe6cc;strokeColor=#d79b00;" parent="1" vertex="1">
          <mxGeometry x="-47" y="81" width="100" height="470" as="geometry"/>
        </mxCell>
        <mxCell id="ZvRYTC18ovLtI7Ebb16t-31" value="" style="html=1;points=[];perimeter=orthogonalPerimeter;rounded=0;shadow=0;comic=0;labelBackgroundColor=none;strokeWidth=1;fontFamily=Verdana;fontSize=12;align=center;fillColor=#dae8fc;strokeColor=#6c8ebf;" parent="ZvRYTC18ovLtI7Ebb16t-30" vertex="1">
          <mxGeometry x="45" y="70" width="10" height="370" as="geometry"/>
        </mxCell>
        <mxCell id="SCf--bu4-dqeZi4qSqdn-16" value="" style="html=1;points=[];perimeter=orthogonalPerimeter;rounded=0;shadow=0;comic=0;labelBackgroundColor=none;strokeWidth=1;fontFamily=Verdana;fontSize=12;align=center;fillColor=#dae8fc;strokeColor=#6c8ebf;" parent="1" vertex="1">
          <mxGeometry x="292" y="380" width="10" height="70" as="geometry"/>
        </mxCell>
        <mxCell id="SCf--bu4-dqeZi4qSqdn-17" value="sendMsg:专业顾问解答" style="html=1;verticalAlign=bottom;endArrow=block;labelBackgroundColor=none;fontFamily=Verdana;fontSize=12;elbow=vertical;edgeStyle=orthogonalEdgeStyle;curved=1;entryX=1;entryY=0.286;entryPerimeter=0;exitX=1.038;exitY=0.345;exitPerimeter=0;" parent="1" edge="1">
          <mxGeometry relative="1" as="geometry">
            <mxPoint x="295" y="371" as="sourcePoint"/>
            <mxPoint x="300" y="409" as="targetPoint"/>
            <Array as="points">
              <mxPoint x="350" y="371"/>
              <mxPoint x="350" y="409"/>
            </Array>
          </mxGeometry>
        </mxCell>
        <mxCell id="SCf--bu4-dqeZi4qSqdn-23" value="sendMsg:购车咨询" style="text;html=1;strokeColor=none;fillColor=none;align=center;verticalAlign=middle;whiteSpace=wrap;rounded=0;" parent="1" vertex="1">
          <mxGeometry x="10" y="121" width="242" height="29" as="geometry"/>
        </mxCell>
        <mxCell id="SCf--bu4-dqeZi4qSqdn-24" value="" style="endArrow=classic;html=1;entryX=0.067;entryY=0.038;entryDx=0;entryDy=0;entryPerimeter=0;" parent="1" target="SCf--bu4-dqeZi4qSqdn-6" edge="1">
          <mxGeometry width="50" height="50" relative="1" as="geometry">
            <mxPoint x="10" y="154" as="sourcePoint"/>
            <mxPoint x="286.3299999999999" y="144.79399999999998" as="targetPoint"/>
          </mxGeometry>
        </mxCell>
        <mxCell id="JGLDKJeqYl051ESUKzou-1" value="" style="endArrow=classic;html=1;" parent="1" target="SCf--bu4-dqeZi4qSqdn-6" edge="1">
          <mxGeometry width="50" height="50" relative="1" as="geometry">
            <mxPoint x="160" y="188" as="sourcePoint"/>
            <mxPoint x="280" y="188" as="targetPoint"/>
          </mxGeometry>
        </mxCell>
        <mxCell id="JGLDKJeqYl051ESUKzou-2" value="sendMsg:专业解答" style="text;html=1;strokeColor=none;fillColor=none;align=center;verticalAlign=middle;whiteSpace=wrap;rounded=0;" parent="1" vertex="1">
          <mxGeometry x="170" y="166" width="70" height="20" as="geometry"/>
        </mxCell>
        <mxCell id="JGLDKJeqYl051ESUKzou-4" value="" style="endArrow=classic;html=1;entryX=0.133;entryY=0.258;entryDx=0;entryDy=0;entryPerimeter=0;" parent="1" target="SCf--bu4-dqeZi4qSqdn-6" edge="1">
          <mxGeometry width="50" height="50" relative="1" as="geometry">
            <mxPoint x="160" y="238" as="sourcePoint"/>
            <mxPoint x="280" y="240" as="targetPoint"/>
          </mxGeometry>
        </mxCell>
        <mxCell id="JGLDKJeqYl051ESUKzou-5" value="createTeam:转专业顾问" style="text;html=1;strokeColor=none;fillColor=none;align=center;verticalAlign=middle;whiteSpace=wrap;rounded=0;" parent="1" vertex="1">
          <mxGeometry x="170" y="210" width="80" height="20" as="geometry"/>
        </mxCell>
        <mxCell id="JGLDKJeqYl051ESUKzou-6" value="" style="endArrow=classic;html=1;" parent="1" edge="1">
          <mxGeometry width="50" height="50" relative="1" as="geometry">
            <mxPoint x="160" y="295" as="sourcePoint"/>
            <mxPoint x="285" y="295" as="targetPoint"/>
          </mxGeometry>
        </mxCell>
        <mxCell id="JGLDKJeqYl051ESUKzou-7" value="specialList:拉取顾问列表" style="text;html=1;strokeColor=none;fillColor=none;align=center;verticalAlign=middle;whiteSpace=wrap;rounded=0;" parent="1" vertex="1">
          <mxGeometry x="180" y="265" width="90" height="20" as="geometry"/>
        </mxCell>
        <mxCell id="JGLDKJeqYl051ESUKzou-8" value="" style="endArrow=classic;html=1;entryX=0.133;entryY=0.512;entryDx=0;entryDy=0;entryPerimeter=0;" parent="1" target="SCf--bu4-dqeZi4qSqdn-6" edge="1">
          <mxGeometry width="50" height="50" relative="1" as="geometry">
            <mxPoint x="160" y="335" as="sourcePoint"/>
            <mxPoint x="280" y="335" as="targetPoint"/>
          </mxGeometry>
        </mxCell>
        <mxCell id="JGLDKJeqYl051ESUKzou-9" value="join:接入顾问" style="text;html=1;strokeColor=none;fillColor=none;align=center;verticalAlign=middle;whiteSpace=wrap;rounded=0;" parent="1" vertex="1">
          <mxGeometry x="183" y="307" width="90" height="20" as="geometry"/>
        </mxCell>
        <mxCell id="JGLDKJeqYl051ESUKzou-10" value="" style="endArrow=classic;html=1;" parent="1" edge="1">
          <mxGeometry width="50" height="50" relative="1" as="geometry">
            <mxPoint x="160" y="367" as="sourcePoint"/>
            <mxPoint x="282" y="367" as="targetPoint"/>
          </mxGeometry>
        </mxCell>
        <mxCell id="JGLDKJeqYl051ESUKzou-11" value="kick:移出顾问" style="text;html=1;strokeColor=none;fillColor=none;align=center;verticalAlign=middle;whiteSpace=wrap;rounded=0;" parent="1" vertex="1">
          <mxGeometry x="180" y="347" width="90" height="20" as="geometry"/>
        </mxCell>
        <mxCell id="JGLDKJeqYl051ESUKzou-12" value="remove:解散顾问组" style="text;html=1;strokeColor=none;fillColor=none;align=center;verticalAlign=middle;whiteSpace=wrap;rounded=0;" parent="1" vertex="1">
          <mxGeometry x="190" y="438" width="90" height="20" as="geometry"/>
        </mxCell>
        <mxCell id="JGLDKJeqYl051ESUKzou-13" value="" style="endArrow=classic;html=1;exitX=1.067;exitY=0.83;exitDx=0;exitDy=0;exitPerimeter=0;" parent="1" edge="1" source="7baba1c4bc27f4b0-9">
          <mxGeometry width="50" height="50" relative="1" as="geometry">
            <mxPoint x="165" y="461" as="sourcePoint"/>
            <mxPoint x="285" y="461" as="targetPoint"/>
          </mxGeometry>
        </mxCell>
      </root>
    </mxGraphModel>
  </diagram>
</mxfile>
